<svg xmlns="http://www.w3.org/2000/svg" width="30" height="29" viewBox="0 0 30 29">
    <g fill="none" fill-rule="evenodd" transform="translate(.28)">
        <path fill="#323232" d="M7.639 5.932a.63.63 0 0 1-.63-.63V.63a.63.63 0 0 1 1.26 0v4.673a.63.63 0 0 1-.63.63zm2.336-2.337a.63.63 0 0 1 0-1.259H16.4a.63.63 0 0 1 0 1.26H9.975zm8.761 2.337a.63.63 0 0 1-.63-.63V.63a.63.63 0 0 1 1.26 0v4.673a.63.63 0 0 1-.63.63zM6.831 21.365H4.86v-1.971h1.97v1.97zm-3.152 1.18v-4.332h4.333v4.333H3.679zm10.419-1.18h-1.971v-1.971h1.97v1.97zm-3.152 1.18v-4.332h4.333v4.333h-4.333zm10.419-1.18h-1.971v-1.971h1.97v1.97zm-3.152 1.18v-4.332h4.333v4.333h-4.333zM4.86 13.036h1.97v1.971H4.86v-1.971zm3.152-1.18v4.332H3.679v-4.333h4.333zm4.115 1.18h1.97v1.971h-1.97v-1.971zm3.152-1.18v4.332h-4.333v-4.333h4.333zm6.086 3.151h-1.971v-1.971h1.97v1.971zm3.75 7.787c0 1.28-1.063 2.323-2.37 2.323H3.63c-1.307 0-2.37-1.043-2.37-2.323V10.02l11.928-.022 11.929.022v12.773zm-6.902-6.606h4.333v-4.333h-4.333v4.333zm4.627-13.85h-1.767a.63.63 0 0 0 0 1.258h1.672c1.308 0 2.37 1.039 2.37 2.315v2.851l-11.928.023L1.26 8.761v-2.85c0-1.277 1.063-2.316 2.37-2.316h1.673a.63.63 0 0 0 0-1.259H3.534C1.553 2.336 0 3.906 0 5.91v16.883c0 1.975 1.628 3.582 3.63 3.582h19.116c2 0 3.629-1.607 3.629-3.582V5.91c0-2.003-1.553-3.574-3.535-3.574z"/>
        <circle cx="18.682" cy="17.949" r="10.623" fill="#F5F5F5"/>
        <circle cx="19.048" cy="18.316" r="8.708" stroke="#323232" stroke-width="1.632"/>
        <path fill="#323232" d="M16.559 14.682h5.506v.011c-.325.5-.508.767-.55.802h-1.47c.202.236.339.524.411.864h1.569c.019.004.028.011.028.023-.35.526-.53.79-.538.79h-1.018c-.023.27-.153.597-.39.978-.313.386-.612.636-.898.75-.535.256-1.046.384-1.534.384v.011c0 .038.12.197.36.475l2.72 3.28v.155c0 .015-.01.022-.03.022H19.53c-2.152-2.507-3.228-3.766-3.228-3.777v-.761l.012-.03c.19.028.414.041.67.041 1.205 0 1.955-.391 2.249-1.173a.947.947 0 0 0 .068-.355h-3.274c-.015 0-.023-.008-.023-.023.363-.527.548-.79.556-.79h2.598v-.011c-.149-.302-.437-.537-.864-.704-.305-.1-.58-.15-.824-.15h-1.454v-.028c.35-.523.532-.784.544-.784z"/>
    </g>
</svg>
